<svg xmlns="http://www.w3.org/2000/svg" viewBox="0 0 955.8 82.8" width="462" height="40" role="img" aria-label="Superhuman Lab">
  <title>Superhuman Lab</title>
  <path d="M280 -11Q193 -11 130.5 17.5Q68 46 16 104L118 205Q152 166 193.5 144.5Q235 123 290 123Q340 123 367.5 141.0Q395 159 395 191Q395 220 377.0 238.0Q359 256 329.5 269.0Q300 282 264.5 294.0Q229 306 194.0 321.5Q159 337 129.5 360.5Q100 384 82.0 419.5Q64 455 64 509Q64 574 95.5 621.0Q127 668 183.0 692.5Q239 717 312 717Q386 717 447.5 691.0Q509 665 549 620L447 519Q415 552 382.5 568.0Q350 584 309 584Q268 584 244.0 568.5Q220 553 220 524Q220 497 238.0 480.5Q256 464 285.5 452.0Q315 440 350.5 428.0Q386 416 421.0 400.0Q456 384 485.5 359.5Q515 335 533.0 297.5Q551 260 551 205Q551 104 479.0 46.5Q407 -11 280 -11Z" fill="#17171B" transform="translate(5.00 76.70) scale(0.10000 -0.10000)"/>
  <path d="M352 -11Q265 -11 198.5 26.0Q132 63 94.5 128.5Q57 194 57 278V706H215V269Q215 227 233.0 196.0Q251 165 282.5 148.5Q314 132 352 132Q392 132 422.0 148.5Q452 165 469.5 195.5Q487 226 487 268V706H645V277Q645 193 608.0 128.0Q571 63 505.0 26.0Q439 -11 352 -11Z" fill="#17171B" transform="translate(66.30 76.70) scale(0.10000 -0.10000)"/>
  <path d="M188 257V379H340Q369 379 393.0 391.0Q417 403 431.0 426.0Q445 449 445 482Q445 514 431.0 537.0Q417 560 393.0 572.0Q369 584 340 584H188V706H363Q430 706 484.0 679.0Q538 652 569.5 601.5Q601 551 601 482Q601 413 569.5 362.5Q538 312 484.0 284.5Q430 257 363 257ZM68 0V706H225V0Z" fill="#17171B" transform="translate(139.50 76.70) scale(0.10000 -0.10000)"/>
  <path d="M68 0V706H225V0ZM188 0V136H575V0ZM188 295V426H540V295ZM188 571V706H570V571Z" fill="#17171B" transform="translate(205.30 76.70) scale(0.10000 -0.10000)"/>
  <path d="M188 291V407H337Q384 407 409.5 431.0Q435 455 435 496Q435 534 410.0 559.0Q385 584 338 584H188V706H356Q426 706 479.0 679.5Q532 653 562.0 606.0Q592 559 592 498Q592 436 562.0 389.5Q532 343 478.0 317.0Q424 291 351 291ZM68 0V706H225V0ZM452 0 232 304 376 343 638 0Z" fill="#17171B" transform="translate(269.80 76.70) scale(0.10000 -0.10000)"/>
  <path d="M68 0V706H225V0ZM505 0V706H663V0ZM162 295V431H557V295Z" fill="#17171B" transform="translate(338.00 76.70) scale(0.10000 -0.10000)"/>
  <path d="M352 -11Q265 -11 198.5 26.0Q132 63 94.5 128.5Q57 194 57 278V706H215V269Q215 227 233.0 196.0Q251 165 282.5 148.5Q314 132 352 132Q392 132 422.0 148.5Q452 165 469.5 195.5Q487 226 487 268V706H645V277Q645 193 608.0 128.0Q571 63 505.0 26.0Q439 -11 352 -11Z" fill="#17171B" transform="translate(414.00 76.70) scale(0.10000 -0.10000)"/>
  <path d="M68 0V706H180L458 273H401L678 706H791V0H634V441L662 434L481 152H377L197 434L224 441V0Z" fill="#17171B" transform="translate(487.20 76.70) scale(0.10000 -0.10000)"/>
  <path d="M15 0 295 706H437L714 0H548L336 586H393L178 0ZM174 128V256H559V128Z" fill="#17171B" transform="translate(576.00 76.70) scale(0.10000 -0.10000)"/>
  <path d="M68 0V706H178L225 565V0ZM555 0 139 533 178 706 594 173ZM555 0 513 141V706H670V0Z" fill="#17171B" transform="translate(651.90 76.70) scale(0.10000 -0.10000)"/>
  <path d="M68 0V706H225V0ZM189 0V138H538V0Z" fill="#17171B" transform="translate(751.70 76.70) scale(0.10000 -0.10000)"/>
  <path d="M15 0 295 706H437L714 0H548L336 586H393L178 0ZM174 128V256H559V128Z" fill="#17171B" transform="translate(810.80 76.70) scale(0.10000 -0.10000)"/>
  <path d="M188 0V122H354Q400 122 426.0 149.0Q452 176 452 215Q452 242 440.0 263.0Q428 284 406.5 296.0Q385 308 354 308H188V427H341Q380 427 404.0 446.5Q428 466 428 506Q428 545 404.0 564.5Q380 584 341 584H188V706H371Q439 706 486.5 681.0Q534 656 559.0 614.0Q584 572 584 521Q584 456 542.0 411.0Q500 366 418 349L422 402Q511 385 559.5 333.0Q608 281 608 205Q608 147 579.5 100.5Q551 54 497.5 27.0Q444 0 369 0ZM68 0V706H223V0Z" fill="#17171B" transform="translate(886.70 76.70) scale(0.10000 -0.10000)"/>
</svg>
