<svg xmlns="http://www.w3.org/2000/svg" viewBox="0 0 1092.0 129.8" width="370" height="44" role="img" aria-label="Superhuman Lab">
  <title>Superhuman Lab</title>
  <path d="M275 -10Q193 -10 135.0 20.0Q77 50 32 107L96 171Q129 125 172.0 101.5Q215 78 278 78Q340 78 377.5 105.0Q415 132 415 179Q415 218 397.0 242.0Q379 266 348.5 281.5Q318 297 282.0 309.5Q246 322 210.0 336.5Q174 351 144.0 372.5Q114 394 95.5 429.0Q77 464 77 517Q77 576 105.5 617.5Q134 659 183.5 681.5Q233 704 295 704Q363 704 417.0 677.5Q471 651 505 608L441 544Q410 580 374.5 598.0Q339 616 293 616Q237 616 204.0 591.5Q171 567 171 523Q171 488 189.5 466.5Q208 445 238.0 430.0Q268 415 304.5 402.5Q341 390 377.0 375.0Q413 360 443.0 337.0Q473 314 491.5 277.5Q510 241 510 186Q510 94 446.5 42.0Q383 -10 275 -10Z" fill="#17171B" transform="translate(17.53 99.61) scale(0.10000 -0.10000)"/>
  <path d="M342 -10Q265 -10 204.5 24.5Q144 59 109.0 119.5Q74 180 74 257V694H168V259Q168 204 191.0 164.0Q214 124 253.5 102.0Q293 80 342 80Q393 80 431.5 102.0Q470 124 492.5 164.0Q515 204 515 258V694H610V256Q610 179 575.0 119.0Q540 59 480.0 24.5Q420 -10 342 -10Z" fill="#17171B" transform="translate(86.03 99.61) scale(0.10000 -0.10000)"/>
  <path d="M145 270V352H334Q373 352 403.5 368.0Q434 384 451.5 413.0Q469 442 469 482Q469 522 451.5 551.0Q434 580 403.5 596.0Q373 612 334 612H145V694H340Q404 694 454.5 668.0Q505 642 534.5 594.5Q564 547 564 482Q564 418 534.5 370.5Q505 323 454.5 296.5Q404 270 340 270ZM82 0V694H176V0Z" fill="#17171B" transform="translate(167.33 99.61) scale(0.10000 -0.10000)"/>
  <path d="M82 0V694H176V0ZM146 0V86H544V0ZM146 314V396H511V314ZM146 608V694H539V608Z" fill="#17171B" transform="translate(240.93 99.61) scale(0.10000 -0.10000)"/>
  <path d="M145 302V381H333Q394 381 427.0 412.0Q460 443 460 496Q460 546 427.5 579.0Q395 612 334 612H145V694H337Q403 694 452.0 668.5Q501 643 527.5 599.0Q554 555 554 498Q554 439 527.5 395.0Q501 351 452.0 326.5Q403 302 337 302ZM82 0V694H176V0ZM482 0 230 311 319 342 601 0Z" fill="#17171B" transform="translate(312.93 99.61) scale(0.10000 -0.10000)"/>
  <path d="M82 0V694H176V0ZM530 0V694H624V0ZM146 316V402H553V316Z" fill="#17171B" transform="translate(388.93 99.61) scale(0.10000 -0.10000)"/>
  <path d="M342 -10Q265 -10 204.5 24.5Q144 59 109.0 119.5Q74 180 74 257V694H168V259Q168 204 191.0 164.0Q214 124 253.5 102.0Q293 80 342 80Q393 80 431.5 102.0Q470 124 492.5 164.0Q515 204 515 258V694H610V256Q610 179 575.0 119.0Q540 59 480.0 24.5Q420 -10 342 -10Z" fill="#17171B" transform="translate(472.53 99.61) scale(0.10000 -0.10000)"/>
  <path d="M82 0V694H148L442 211H397L691 694H757V0H663V529L685 523L453 142H387L155 523L176 529V0Z" fill="#17171B" transform="translate(553.83 99.61) scale(0.10000 -0.10000)"/>
  <path d="M31 0 315 694H383L666 0H564L331 587H366L131 0ZM166 157V239H531V157Z" fill="#17171B" transform="translate(650.73 99.61) scale(0.10000 -0.10000)"/>
  <path d="M82 0V694H148L176 585V0ZM562 0 136 569 148 694 575 126ZM562 0 534 103V694H628V0Z" fill="#17171B" transform="translate(733.33 99.61) scale(0.10000 -0.10000)"/>
  <path d="M82 0V694H176V0ZM146 0V86H518V0Z" fill="#17171B" transform="translate(861.33 99.61) scale(0.10000 -0.10000)"/>
  <path d="M31 0 315 694H383L666 0H564L331 587H366L131 0ZM166 157V239H531V157Z" fill="#17171B" transform="translate(929.53 99.61) scale(0.10000 -0.10000)"/>
  <path d="M145 0V82H355Q415 82 449.0 117.5Q483 153 483 203Q483 237 468.0 264.5Q453 292 424.5 308.0Q396 324 358 324H145V406H344Q394 406 423.5 432.5Q453 459 453 509Q453 559 422.0 585.5Q391 612 340 612H145V694H342Q410 694 455.5 669.5Q501 645 524.5 605.0Q548 565 548 517Q548 461 517.5 419.0Q487 377 428 353L436 383Q503 359 540.5 310.5Q578 262 578 196Q578 141 551.0 97.0Q524 53 473.5 26.5Q423 0 350 0ZM82 0V694H176V0Z" fill="#17171B" transform="translate(1012.13 99.61) scale(0.10000 -0.10000)"/>
</svg>
